<svg xmlns="http://www.w3.org/2000/svg" viewBox="0 0 285.67 223.17">
    <defs>
        <style>
            .cls-1{fill:#ea6011}.cls-2{fill:#009cb1}
        </style>
    </defs>
    <path class="cls-1" d="M0 206.73v-.07a10.74 10.74 0 0 1 11.08-10.78 9.8 9.8 0 0 1 8.83 4.62l-4.93 3.67a4.46 4.46 0 0 0-3.86-2.18c-2.33 0-4 2.07-4 4.59v.08c0 2.67 1.68 4.7 4.13 4.7a5 5 0 0 0 4-2.14l4.85 3.51a10.25 10.25 0 0 1-9.21 4.74A10.67 10.67 0 0 1 0 206.73zm22.58-17.65h7.26v10.05a7.62 7.62 0 0 1 6.19-3.29c4.4 0 7 2.91 7 7.61v13.52h-7.19v-11.14c0-2.26-1.18-3.48-2.9-3.48s-3.1 1.17-3.1 3.48v11.19h-7.26zm23.2 21.97v-.08c0-4.28 3.25-6.49 8.1-6.49a15.92 15.92 0 0 1 5 .8v-.34c0-2.14-1.34-3.37-4.13-3.37a14.45 14.45 0 0 0-5.69 1.15l-1.49-5.12a20.83 20.83 0 0 1 8.36-1.6c3.71 0 6.23.87 7.88 2.52s2.21 3.67 2.21 6.57v11.88h-7.18v-2.14a7.79 7.79 0 0 1-6.08 2.6c-3.92 0-6.98-2.25-6.98-6.38zm13.14-1.57v-.95a7.5 7.5 0 0 0-2.83-.54c-2.1 0-3.32 1-3.32 2.56v.08a2.28 2.28 0 0 0 2.56 2.25 3.32 3.32 0 0 0 3.59-3.4zM69.7 196.3h7.26v2.91a7.68 7.68 0 0 1 6.19-3.37c4.39 0 7 2.91 7 7.61v13.52h-7.26v-11.14c0-2.26-1.19-3.48-2.91-3.48s-3.05 1.22-3.05 3.48v11.19h-7.26zm24.03 24.53 2.33-4.81a14.32 14.32 0 0 0 7.22 2c3.64 0 5.43-1.8 5.43-5.08v-.81a8 8 0 0 1-6.38 3.1c-5.08 0-9.17-3.67-9.17-9.59v-.08c0-6 4.16-9.63 8.94-9.63a8.29 8.29 0 0 1 6.5 2.91v-2.45h7.24v15.71c0 3.78-.84 6.42-2.68 8.25s-4.77 2.9-9.09 2.9a22.15 22.15 0 0 1-10.34-2.42zm15-15.24v-.08a4.23 4.23 0 0 0-8.44 0v.08a4.23 4.23 0 0 0 8.44 0zm11.18-9.29h7.26v20.67h-7.26zm11.31 0h7.26v2.91a7.65 7.65 0 0 1 6.19-3.37c4.39 0 7 2.91 7 7.61v13.52h-7.23v-11.14c0-2.26-1.19-3.48-2.91-3.48s-3.05 1.22-3.05 3.48v11.19h-7.26zm24.03 24.53 2.33-4.81a14.3 14.3 0 0 0 7.22 2c3.63 0 5.43-1.8 5.43-5.08v-.81a8 8 0 0 1-6.38 3.1c-5.08 0-9.17-3.67-9.17-9.59v-.08c0-6 4.16-9.63 8.94-9.63a8.27 8.27 0 0 1 6.49 2.91v-2.45h7.26v15.71c0 3.78-.84 6.42-2.67 8.25s-4.78 2.9-9.09 2.9a22.12 22.12 0 0 1-10.36-2.42zm15-15.24v-.08a4.23 4.23 0 0 0-8.44 0v.08a4.23 4.23 0 0 0 8.44 0z"/>
    <path class="cls-2" d="M183.91 206.73v-.07A10.74 10.74 0 0 1 195 195.88a9.79 9.79 0 0 1 8.82 4.62l-4.93 3.67a4.46 4.46 0 0 0-3.86-2.18c-2.33 0-4.05 2.07-4.05 4.59v.08c0 2.67 1.69 4.7 4.13 4.7a5 5 0 0 0 4-2.14l4.86 3.51a10.25 10.25 0 0 1-9.21 4.74 10.67 10.67 0 0 1-10.85-10.74zm22.74-10.43h7.26v20.67h-7.26zm12.57 14.25v-8.4h-2.44v-5.85h2.44v-5.23h7.26v5.23h4.82v5.85h-4.82v7c0 1.45.65 2.06 2 2.06a6.38 6.38 0 0 0 2.75-.68v5.69a10.42 10.42 0 0 1-5 1.18c-4.39-.01-7.01-1.92-7.01-6.85zm15.36-14.25h7.26v20.67h-7.26zm10.47 10.43v-.07c0-6 4.32-10.82 10.43-10.82 7.15 0 10.43 5.24 10.43 11.31v1.49h-13.87a4.27 4.27 0 0 0 4.47 3.4 6.25 6.25 0 0 0 4.59-2.1l4 3.33a10.83 10.83 0 0 1-9 4.2c-6.46 0-11.05-4.32-11.05-10.74zm14.06-1.79c-.27-2.3-1.6-3.75-3.59-3.75s-3.21 1.49-3.59 3.75zm8.33 9.44 2.71-4.4a13.42 13.42 0 0 0 7.11 2.37c1.26 0 1.84-.38 1.84-1.11v-.07c0-.81-1.15-1.15-3.33-1.76-4.09-1.07-7.33-2.45-7.33-6.61v-.08c0-4.39 3.51-6.84 8.29-6.84a16.15 16.15 0 0 1 8.52 2.41l-2.49 4.54a14 14 0 0 0-6.11-1.91c-1.11 0-1.68.42-1.68 1v.07c0 .81 1.18 1.19 3.36 1.84 4.09 1.14 7.34 2.56 7.34 6.57v.08c0 4.54-3.4 6.91-8.45 6.91a16.71 16.71 0 0 1-9.78-3.01z"/>
    <circle class="cls-2" cx="95.96" cy="16.35" r="3.54"/>
    <circle class="cls-2" cx="123.47" cy="6.15" r="3.54"/>
    <circle class="cls-1" cx="238.25" cy="174.58" r="3.54"/>
    <circle class="cls-1" cx="95.38" cy="88.29" r="3.54"/>
    <circle class="cls-1" cx="108.13" cy="88.29" r="3.54"/>
    <circle class="cls-1" cx="120.89" cy="88.29" r="3.54"/>
    <circle class="cls-1" cx="134.03" cy="88.29" r="3.54"/>
    <circle class="cls-2" cx="239.94" cy="88.29" r="3.54"/>
    <circle class="cls-2" cx="227.19" cy="88.29" r="3.54"/>
    <circle class="cls-2" cx="252.7" cy="88.29" r="3.54"/>
    <circle class="cls-2" cx="265.46" cy="88.29" r="3.54"/>
    <circle class="cls-1" cx="96.54" cy="102.29" r="3.54"/>
    <circle class="cls-2" cx="264.3" cy="74.3" r="3.54"/>
    <circle class="cls-1" cx="99.98" cy="115.9" r="3.54"/>
    <circle class="cls-2" cx="260.85" cy="60.69" r="3.54"/>
    <circle class="cls-1" cx="105.62" cy="128.76" r="3.54"/>
    <circle class="cls-2" cx="255.21" cy="47.83" r="3.54"/>
    <circle class="cls-1" cx="113.3" cy="140.52" r="3.54"/>
    <circle class="cls-2" cx="247.53" cy="36.07" r="3.54"/>
    <circle class="cls-1" cx="122.81" cy="150.85" r="3.54"/>
    <circle class="cls-2" cx="238.02" cy="25.74" r="3.54"/>
    <circle class="cls-1" cx="133.89" cy="159.48" r="3.54"/>
    <circle class="cls-2" cx="226.94" cy="17.11" r="3.54"/>
    <circle class="cls-1" cx="146.24" cy="166.16" r="3.54"/>
    <circle class="cls-2" cx="214.59" cy="10.42" r="3.54"/>
    <circle class="cls-1" cx="159.52" cy="170.73" r="3.54"/>
    <circle class="cls-2" cx="201.31" cy="5.86" r="3.54"/>
    <circle class="cls-1" cx="173.96" cy="173.04" r="3.54"/>
    <circle class="cls-2" cx="187.25" cy="3.55" r="3.54"/>
    <circle class="cls-2" cx="187.25" cy="173.04" r="3.54"/>
    <circle class="cls-1" cx="173.96" cy="3.54" r="3.54"/>
    <circle class="cls-2" cx="201.27" cy="170.74" r="3.54"/>
    <circle class="cls-1" cx="159.56" cy="5.85" r="3.54"/>
    <circle class="cls-2" cx="214.55" cy="166.18" r="3.54"/>
    <circle class="cls-1" cx="146.28" cy="10.41" r="3.54"/>
    <circle class="cls-2" cx="226.91" cy="159.5" r="3.54"/>
    <circle class="cls-1" cx="133.93" cy="17.09" r="3.54"/>
    <circle class="cls-2" cx="237.99" cy="150.88" r="3.54"/>
    <circle class="cls-1" cx="122.84" cy="25.71" r="3.54"/>
    <circle class="cls-2" cx="247.51" cy="140.55" r="3.54"/>
    <circle class="cls-1" cx="113.33" cy="36.04" r="3.54"/>
    <circle class="cls-2" cx="255.19" cy="128.8" r="3.54"/>
    <circle class="cls-1" cx="105.64" cy="47.79" r="3.54"/>
    <circle class="cls-2" cx="260.84" cy="115.94" r="3.54"/>
    <circle class="cls-1" cx="100" cy="60.65" r="3.54"/>
    <circle class="cls-2" cx="264.29" cy="102.33" r="3.54"/>
    <circle class="cls-1" cx="96.54" cy="74.26" r="3.54"/>
    <circle class="cls-1" cx="109.37" cy="101.58" r="3.54"/>
    <circle class="cls-2" cx="251.47" cy="75.01" r="3.54"/>
    <circle class="cls-1" cx="113.02" cy="114.42" r="3.54"/>
    <circle class="cls-2" cx="247.81" cy="62.17" r="3.54"/>
    <circle class="cls-1" cx="118.97" cy="126.36" r="3.54"/>
    <circle class="cls-2" cx="241.86" cy="50.22" r="3.54"/>
    <circle class="cls-1" cx="127.02" cy="137.01" r="3.54"/>
    <circle class="cls-2" cx="233.82" cy="39.58" r="3.54"/>
    <circle class="cls-1" cx="136.88" cy="146" r="3.54"/>
    <circle class="cls-2" cx="223.95" cy="30.59" r="3.54"/>
    <circle class="cls-1" cx="148.24" cy="153.02" r="3.54"/>
    <circle class="cls-2" cx="212.6" cy="23.57" r="3.54"/>
    <circle class="cls-1" cx="160.68" cy="157.83" r="3.54"/>
    <circle class="cls-2" cx="200.15" cy="18.76" r="3.54"/>
    <circle class="cls-1" cx="174.01" cy="160.27" r="3.54"/>
    <circle class="cls-2" cx="187.03" cy="16.31" r="3.54"/>
    <circle class="cls-2" cx="187.15" cy="160.26" r="3.54"/>
    <circle class="cls-1" cx="174.1" cy="16.32" r="3.54"/>
    <circle class="cls-2" cx="200.27" cy="157.8" r="3.54"/>
    <circle class="cls-1" cx="160.57" cy="18.79" r="3.54"/>
    <circle class="cls-2" cx="212.71" cy="152.97" r="3.54"/>
    <circle class="cls-1" cx="148.13" cy="23.62" r="3.54"/>
    <circle class="cls-2" cx="224.04" cy="145.93" r="3.54"/>
    <circle class="cls-1" cx="136.79" cy="30.66" r="3.54"/>
    <circle class="cls-2" cx="233.9" cy="136.92" r="3.54"/>
    <circle class="cls-1" cx="126.94" cy="39.66" r="3.54"/>
    <circle class="cls-2" cx="241.93" cy="126.26" r="3.54"/>
    <circle class="cls-1" cx="118.91" cy="50.32" r="3.54"/>
    <circle class="cls-2" cx="247.86" cy="114.31" r="3.54"/>
    <circle class="cls-1" cx="112.98" cy="62.28" r="3.54"/>
    <circle class="cls-2" cx="251.49" cy="101.47" r="3.54"/>
    <circle class="cls-1" cx="122.2" cy="100.71" r="3.54"/>
    <circle class="cls-2" cx="238.64" cy="75.88" r="3.54"/>
    <circle class="cls-1" cx="126.04" cy="112.51" r="3.54"/>
    <circle class="cls-2" cx="234.8" cy="64.08" r="3.54"/>
    <circle class="cls-1" cx="132.28" cy="123.31" r="3.54"/>
    <circle class="cls-2" cx="228.55" cy="53.27" r="3.54"/>
    <circle class="cls-1" cx="140.59" cy="132.53" r="3.54"/>
    <circle class="cls-2" cx="220.25" cy="44.06" r="3.54"/>
    <circle class="cls-1" cx="150.69" cy="139.87" r="3.54"/>
    <circle class="cls-2" cx="210.15" cy="36.72" r="3.54"/>
    <circle class="cls-1" cx="162.02" cy="144.91" r="3.54"/>
    <circle class="cls-2" cx="198.81" cy="31.68" r="3.54"/>
    <circle class="cls-1" cx="174.23" cy="147.5" r="3.54"/>
    <circle class="cls-2" cx="186.85" cy="29.09" r="3.54"/>
    <circle class="cls-2" cx="186.93" cy="147.49" r="3.54"/>
    <circle class="cls-1" cx="174.24" cy="29.1" r="3.54"/>
    <circle class="cls-2" cx="198.81" cy="144.91" r="3.54"/>
    <circle class="cls-1" cx="162.02" cy="31.68" r="3.54"/>
    <circle class="cls-2" cx="210.21" cy="139.83" r="3.54"/>
    <circle class="cls-1" cx="150.62" cy="36.76" r="3.54"/>
    <circle class="cls-2" cx="220.25" cy="132.53" r="3.54"/>
    <circle class="cls-1" cx="140.59" cy="44.06" r="3.54"/>
    <circle class="cls-2" cx="228.6" cy="123.25" r="3.54"/>
    <circle class="cls-1" cx="132.24" cy="53.33" r="3.54"/>
    <circle class="cls-2" cx="234.8" cy="112.51" r="3.54"/>
    <circle class="cls-1" cx="126.04" cy="64.08" r="3.54"/>
    <circle class="cls-1" cx="122.18" cy="75.95" r="3.54"/>
    <circle class="cls-1" cx="135.92" cy="101.45" r="3.54"/>
    <circle class="cls-2" cx="225.29" cy="75.14" r="3.54"/>
    <circle class="cls-1" cx="141.45" cy="113.53" r="3.54"/>
    <circle class="cls-1" cx="150.17" cy="123.56" r="3.54"/>
    <circle class="cls-2" cx="211.04" cy="53.03" r="3.54"/>
    <circle class="cls-1" cx="161.36" cy="130.72" r="3.54"/>
    <circle class="cls-2" cx="199.85" cy="45.87" r="3.54"/>
    <circle class="cls-1" cx="174.21" cy="134.42" r="3.54"/>
    <circle class="cls-2" cx="187.09" cy="42.17" r="3.54"/>
    <circle class="cls-2" cx="186.97" cy="134.5" r="3.54"/>
    <circle class="cls-1" cx="174.14" cy="42.27" r="3.54"/>
    <circle class="cls-2" cx="199.96" cy="130.64" r="3.54"/>
    <circle class="cls-1" cx="161.07" cy="46.01" r="3.54"/>
    <circle class="cls-2" cx="211.29" cy="123.34" r="3.54"/>
    <circle class="cls-1" cx="149.92" cy="53.25" r="3.54"/>
    <circle class="cls-2" cx="219.94" cy="113.25" r="3.54"/>
    <circle class="cls-1" cx="141.28" cy="63.33" r="3.54"/>
    <circle class="cls-2" cx="225.38" cy="101.13" r="3.54"/>
    <circle class="cls-1" cx="135.83" cy="75.45" r="3.54"/>
</svg>
